<svg height="670" width="720" xmlns="http://www.w3.org/2000/svg">
<rect height="670" fill="#555" width="720"></rect>
<text fill="#7f7" font-family="Courier New" font-size="12" xml:space="preserve">
<tspan x="10" y="26">1 megabytes installed</tspan>
<tspan x="10" y="42"></tspan>
<tspan x="10" y="58">node_modules</tspan>
<tspan x="10" y="74">└─┬ anymatch@1.3.0 </tspan>
<tspan x="10" y="90">  ├── arrify@1.0.1 </tspan>
<tspan x="10" y="106">  └─┬ micromatch@2.3.11 </tspan>
<tspan x="10" y="122">    ├─┬ arr-diff@2.0.0 </tspan>
<tspan x="10" y="138">    │ └── arr-flatten@1.0.3 </tspan>
<tspan x="10" y="154">    ├── array-unique@0.2.1 </tspan>
<tspan x="10" y="170">    ├─┬ braces@1.8.5 </tspan>
<tspan x="10" y="186">    │ ├─┬ expand-range@1.8.2 </tspan>
<tspan x="10" y="202">    │ │ └─┬ fill-range@2.2.3 </tspan>
<tspan x="10" y="218">    │ │   ├── is-number@2.1.0 </tspan>
<tspan x="10" y="234">    │ │   ├─┬ isobject@2.1.0 </tspan>
<tspan x="10" y="250">    │ │   │ └── isarray@1.0.0 </tspan>
<tspan x="10" y="266">    │ │   ├── randomatic@1.1.6 </tspan>
<tspan x="10" y="282">    │ │   └── repeat-string@1.6.1 </tspan>
<tspan x="10" y="298">    │ ├── preserve@0.2.0 </tspan>
<tspan x="10" y="314">    │ └── repeat-element@1.1.2 </tspan>
<tspan x="10" y="330">    ├─┬ expand-brackets@0.1.5 </tspan>
<tspan x="10" y="346">    │ └── is-posix-bracket@0.1.1 </tspan>
<tspan x="10" y="362">    ├── extglob@0.3.2 </tspan>
<tspan x="10" y="378">    ├── filename-regex@2.0.0 </tspan>
<tspan x="10" y="394">    ├── is-extglob@1.0.0 </tspan>
<tspan x="10" y="410">    ├── is-glob@2.0.1 </tspan>
<tspan x="10" y="426">    ├─┬ kind-of@3.1.0 </tspan>
<tspan x="10" y="442">    │ └── is-buffer@1.1.5 </tspan>
<tspan x="10" y="458">    ├─┬ normalize-path@2.1.1 </tspan>
<tspan x="10" y="474">    │ └── remove-trailing-separator@1.0.1 </tspan>
<tspan x="10" y="490">    ├─┬ object.omit@2.0.1 </tspan>
<tspan x="10" y="506">    │ ├─┬ for-own@0.1.5 </tspan>
<tspan x="10" y="522">    │ │ └── for-in@1.0.2 </tspan>
<tspan x="10" y="538">    │ └── is-extendable@0.1.1 </tspan>
<tspan x="10" y="554">    ├─┬ parse-glob@3.0.4 </tspan>
<tspan x="10" y="570">    │ ├─┬ glob-base@0.3.0 </tspan>
<tspan x="10" y="586">    │ │ └── glob-parent@2.0.0 </tspan>
<tspan x="10" y="602">    │ └── is-dotfile@1.0.2 </tspan>
<tspan x="10" y="618">    └─┬ regex-cache@0.4.3 </tspan>
<tspan x="10" y="634">      ├── is-equal-shallow@0.1.3 </tspan>
<tspan x="10" y="650">      └── is-primitive@2.0.0</tspan>
</text>
</svg>
